<?xml version="1.0" encoding="utf-8"?>
<!-- Generator: Adobe Illustrator 23.0.1, SVG Export Plug-In . SVG Version: 6.00 Build 0)  -->
    <svg version="1.1" id="bosch-lifeclip" xmlns="http://www.w3.org/2000/svg" x="0px" y="0px" viewBox="0 0 435 97"
         style="enable-background:new 0 0 435 155;" xml:space="preserve">
<style type="text/css">
	.anker{fill:#606061;}
	.bosch{fill-rule:evenodd;clip-rule:evenodd;fill:#EA0016;}
	.claim{fill:#000000;}

	.st0{fill-rule:evenodd;clip-rule:evenodd;fill:#FFFFFF;}
	.st1{fill:url(#SVGID_1_);}
	.st2{fill:#942432;}
	.st3{fill:#B22739;}
	.st4{fill:#931915;}
	.st5{fill:#AF1A19;}
	.st6{fill:#D5151A;}
	.st7{fill:url(#SVGID_2_);}
	.st8{fill:url(#SVGID_3_);}
	.st9{fill:url(#SVGID_4_);}
	.st10{fill:url(#SVGID_5_);}
	.st11{fill:url(#SVGID_6_);}
	.st12{fill:#253783;}
	.st13{fill:url(#SVGID_7_);}
	.st14{fill:url(#SVGID_8_);}
	.st15{fill:url(#SVGID_9_);}
	.st16{fill:url(#SVGID_10_);}
	.st17{fill:url(#SVGID_11_);}
	.st18{fill:url(#SVGID_12_);}
	.st19{fill:#159A39;}
	.st20{fill:url(#SVGID_13_);}
	.st21{fill:url(#SVGID_14_);}
	.st22{fill:url(#SVGID_15_);}
	.st23{fill:url(#SVGID_16_);}
	.st24{fill:url(#SVGID_17_);}
	.st25{fill:url(#SVGID_18_);}
	.st26{fill:url(#SVGID_19_);}
	.st27{fill:url(#SVGID_20_);}
	.st28{fill:url(#SVGID_21_);}
	.st29{fill:url(#SVGID_22_);}
	.st30{fill:url(#SVGID_23_);}
	.st31{fill:url(#SVGID_24_);}
	.st32{fill:url(#SVGID_25_);}
	.st33{fill:url(#SVGID_26_);}
	.st34{fill:url(#SVGID_27_);}
	.st35{fill:url(#SVGID_28_);}
	.st36{fill:url(#SVGID_29_);}
	.st37{fill:url(#SVGID_30_);}
	.st38{fill:url(#SVGID_31_);}
	.st39{fill:url(#SVGID_32_);}
	.st40{fill:url(#SVGID_33_);}
	.st41{fill:url(#SVGID_34_);}
	.st42{fill:url(#SVGID_35_);}
	.st43{fill:url(#SVGID_36_);}
	.st44{fill:url(#SVGID_37_);}
	.st45{fill:url(#SVGID_38_);}
	.st46{fill:url(#SVGID_39_);}
	.st47{fill:url(#SVGID_40_);}
	.st48{fill:url(#SVGID_41_);}
	.st49{fill:url(#SVGID_42_);}
	.st50{fill:url(#SVGID_43_);}
	.st51{fill:url(#SVGID_44_);}
	.st52{fill:url(#SVGID_45_);}
	.st53{fill:url(#SVGID_46_);}
	.st54{fill:url(#SVGID_47_);}
	.st55{fill:url(#SVGID_48_);}
	.st56{fill:url(#SVGID_49_);}
	.st57{fill:url(#SVGID_50_);}
	.st58{fill:url(#SVGID_51_);}
	.st59{fill:url(#SVGID_52_);}
	.st60{fill:url(#SVGID_53_);}
	.st61{fill:url(#SVGID_54_);}
	.st62{fill:url(#SVGID_55_);}
	.st63{fill:url(#SVGID_56_);}
</style>
    <g id="box">
        <g id="bosch">
        <g>
            <path class="bosch" d="M185.19998,46.7c0,0,8.79999-3,8.79999-13c0-11.7-8.29999-17.5-19.70001-17.5h-29.89996v63.59999h32.5
                c10,0,19.79999-7,19.79999-17.7C196.69998,49.39999,185.19998,46.8,185.19998,46.7z M160,29.39999h11.60001
                c3.60001,0,6,2.39999,6,6c0,2.8-2.20001,5.8-6.29999,5.8h-11.39999L160,29.39999L160,29.39999z M171.69998,66.5h-11.60001V54
                h11.30002c5.70001,0,8.39999,2.5,8.39999,6.2C179.79999,64.8,176.39999,66.5,171.69998,66.5z"/>
            <path class="bosch" d="M231.10001,14.60001c-18.39999,0-29.20001,14.7-29.20001,33.3c0,18.7,10.79999,33.3,29.20001,33.3
                c18.5,0,29.20001-14.60001,29.20001-33.3C260.29999,29.3,249.60001,14.60001,231.10001,14.60001z M231.10001,66
                c-9,0-13.5-8.10001-13.5-18.10001s4.5-18,13.5-18s13.60001,8.10001,13.60001,18C244.69998,58,240.10001,66,231.10001,66z"/>
            <path class="bosch" d="M294.19998,41.2l-2.20001-0.5c-5.39999-1.10001-9.70001-2.5-9.70001-6.39999
                c0-4.2,4.10001-5.89999,7.70001-5.89999c5.29999,0,10,2.60001,13,5.89999l9.89999-9.8c-4.5-5.10001-11.79999-10-23.20001-10
                c-13.39999,0-23.60001,7.5-23.60001,20c0,11.39999,8.20001,17,18.20001,19.10001l2.20001,0.5c8.29999,1.7,11.39999,3,11.39999,7
                c0,3.8-3.39999,6.3-8.60001,6.3c-6.20001,0-11.79999-2.7-16.10001-8.2l-10.10001,10
                c5.60001,6.7,12.70001,11.89999,26.39999,11.89999c11.89999,0,24.60001-6.8,24.60001-20.7
                C314.29999,45.89999,303.29999,43.10001,294.19998,41.2z"/>
            <path class="bosch" d="M349.69998,66c-7,0-14.29999-5.8-14.29999-18.5c0-11.3,6.79999-17.60001,13.89999-17.60001
                c5.60001,0,8.89999,2.60001,11.5,7.10001l12.79999-8.5c-6.39999-9.7-14-13.8-24.5-13.8
                c-19.20001,0-29.60001,14.89999-29.60001,32.90001c0,18.89999,11.5,33.7,29.39999,33.7
                c12.60001,0,18.60001-4.39999,25.10001-13.8l-12.89999-8.7C358.5,63,355.69998,66,349.69998,66z"/>
            <polygon class="bosch" points="416.30002,16.2 416.30002,39.60001 396.99997,39.60001 396.99997,16.2 380.29999,16.2
                380.29999,79.8 396.99997,79.8 396.99997,54.7 416.30002,54.7 416.30002,79.8 432.99997,79.8 432.99997,16.2 			"/>
        </g>
            <g>
            <path class="bosch" d="M185.19998,46.7c0,0,8.79999-3,8.79999-13c0-11.7-8.29999-17.5-19.70001-17.5h-29.89996v63.59999h32.5
                c10,0,19.79999-7,19.79999-17.7C196.69998,49.39999,185.19998,46.8,185.19998,46.7z M160,29.39999h11.60001
                c3.60001,0,6,2.39999,6,6c0,2.8-2.20001,5.8-6.29999,5.8h-11.39999L160,29.39999L160,29.39999z M171.69998,66.5h-11.60001V54
                h11.30002c5.70001,0,8.39999,2.5,8.39999,6.2C179.79999,64.8,176.39999,66.5,171.69998,66.5z"/>
                <path class="bosch" d="M231.10001,14.60001c-18.39999,0-29.20001,14.7-29.20001,33.3c0,18.7,10.79999,33.3,29.20001,33.3
                c18.5,0,29.20001-14.60001,29.20001-33.3C260.29999,29.3,249.60001,14.60001,231.10001,14.60001z M231.10001,66
                c-9,0-13.5-8.10001-13.5-18.10001s4.5-18,13.5-18s13.60001,8.10001,13.60001,18C244.69998,58,240.10001,66,231.10001,66z"/>
                <path class="bosch" d="M294.19998,41.2l-2.20001-0.5c-5.39999-1.10001-9.70001-2.5-9.70001-6.39999
                c0-4.2,4.10001-5.89999,7.70001-5.89999c5.29999,0,10,2.60001,13,5.89999l9.89999-9.8c-4.5-5.10001-11.79999-10-23.20001-10
                c-13.39999,0-23.60001,7.5-23.60001,20c0,11.39999,8.20001,17,18.20001,19.10001l2.20001,0.5c8.29999,1.7,11.39999,3,11.39999,7
                c0,3.8-3.39999,6.3-8.60001,6.3c-6.20001,0-11.79999-2.7-16.10001-8.2l-10.10001,10
                c5.60001,6.7,12.70001,11.89999,26.39999,11.89999c11.89999,0,24.60001-6.8,24.60001-20.7
                C314.29999,45.89999,303.29999,43.10001,294.19998,41.2z"/>
                <path class="bosch" d="M349.69998,66c-7,0-14.29999-5.8-14.29999-18.5c0-11.3,6.79999-17.60001,13.89999-17.60001
                c5.60001,0,8.89999,2.60001,11.5,7.10001l12.79999-8.5c-6.39999-9.7-14-13.8-24.5-13.8
                c-19.20001,0-29.60001,14.89999-29.60001,32.90001c0,18.89999,11.5,33.7,29.39999,33.7
                c12.60001,0,18.60001-4.39999,25.10001-13.8l-12.89999-8.7C358.5,63,355.69998,66,349.69998,66z"/>
                <polygon class="bosch" points="416.30002,16.2 416.30002,39.60001 396.99997,39.60001 396.99997,16.2 380.29999,16.2
                380.29999,79.8 396.99997,79.8 396.99997,54.7 416.30002,54.7 416.30002,79.8 432.99997,79.8 432.99997,16.2 			"/>
        </g>
    </g>
        <g id="anker">
        <g>
            <path class="anker" d="M48.2,0C21.59999,0,0,21.60001,0,48.2s21.60001,48.2,48.2,48.2s48.2-21.60001,48.2-48.2S74.79999,0,48.2,0
                z M48.2,91.89999c-24.10001,0-43.7-19.60001-43.7-43.7S24.10001,4.5,48.2,4.5s43.7,19.60001,43.7,43.7
                S72.29999,91.89999,48.2,91.89999z"/>
            <path class="anker" d="M68.09999,18.10001h-3.3v16.5H31.69998v-16.5h-3.39999c-9.7,6.5-16.2,17.5-16.2,30.10001
                s6.5,23.60001,16.2,30.10001h3.39999v-16.5h33.10001v16.5h3.3c9.8-6.5,16.2-17.5,16.2-30.10001
                S77.89999,24.60001,68.09999,18.10001z M27.09999,71.8c-6.7-5.89999-10.60001-14.39999-10.60001-23.60001
                c0-9.2,3.89999-17.7,10.60001-23.60001V71.8z M64.79999,57.2H31.69998V39.09999h33.10001V57.2z M69.29999,71.7v-10l0,0V34.59999
                l0,0v-10c6.60001,5.89999,10.5,14.39999,10.5,23.5C79.79999,57.3,75.89999,65.8,69.29999,71.7z"/>
        </g>
            <g>
            <path class="anker" d="M48.2,0C21.59999,0,0,21.60001,0,48.2s21.60001,48.2,48.2,48.2s48.2-21.60001,48.2-48.2S74.79999,0,48.2,0
                z M48.2,91.89999c-24.10001,0-43.7-19.60001-43.7-43.7S24.10001,4.5,48.2,4.5s43.7,19.60001,43.7,43.7
                S72.29999,91.89999,48.2,91.89999z"/>
                <path class="anker" d="M68.09999,18.10001h-3.3v16.5H31.69998v-16.5h-3.39999c-9.7,6.5-16.2,17.5-16.2,30.10001
                s6.5,23.60001,16.2,30.10001h3.39999v-16.5h33.10001v16.5h3.3c9.8-6.5,16.2-17.5,16.2-30.10001
                S77.89999,24.60001,68.09999,18.10001z M27.09999,71.8c-6.7-5.89999-10.60001-14.39999-10.60001-23.60001
                c0-9.2,3.89999-17.7,10.60001-23.60001V71.8z M64.79999,57.2H31.69998V39.09999h33.10001V57.2z M69.29999,71.7v-10l0,0V34.59999
                l0,0v-10c6.60001,5.89999,10.5,14.39999,10.5,23.5C79.79999,57.3,75.89999,65.8,69.29999,71.7z"/>
        </g>
    </g>
</g>
</svg>
